<svg width="22" height="22" viewBox="0 0 22 22" fill="none" xmlns="http://www.w3.org/2000/svg">
<g clip-path="url(#clip0_1_44)">
<path d="M0.452057 22.0001H7.91096C11.4479 22.0001 14.3151 19.1328 14.3151 15.5959H6.85617C3.31927 15.5959 0.452057 18.4632 0.452057 22.0001Z" fill="black"/>
<path d="M0.785721 6.40411V15.8219C4.32261 15.8219 7.18983 12.9547 7.18983 9.41781V0C3.65294 0 0.785721 2.86722 0.785721 6.40411Z" fill="black"/>
<path d="M14.089 0.5H21.0271C20.7733 3.52674 18.2362 5.90411 15.1438 5.90411H8.20581C8.45962 2.87737 10.9967 0.5 14.089 0.5Z" stroke="black"/>
<path d="M21.5479 15.2192V5.80139C18.011 5.80139 15.1438 8.66861 15.1438 12.2055V21.6233C18.6807 21.6233 21.5479 18.7561 21.5479 15.2192Z" fill="black"/>
</g>
<defs>
<clipPath id="clip0_1_44">
<rect width="22" height="22" fill="white"/>
</clipPath>
</defs>
</svg>
